# xmcd CD database file
#
# Track frame offsets:
#	150
#	11322
#	25259
#	37612
#	54055
#	70571
#	84930
#	96466
#	112050
#	124107
#	137547
#	150800
#	163601
#	174730
#	190732
#	203140
#
# Disc length: 2868 seconds
#
# Revision: 3
# Processed by: cddbd v1.5.1PL0 Copyright (c) Steve Scherf et al.
# Submitted via: CDex 1.51
#
DISCID=b70b3210
DTITLE=Jorge Negrete - El charro cantor volumen 4
DYEAR=1900
DGENRE=Country
TTITLE0=Serenata Tapatia
TTITLE1=El topeton
TTITLE2=La torcida
TTITLE3=Bonita Guadalajara
TTITLE4=La negra noche
TTITLE5=Amor con amor se paga
TTITLE6=El azoton
TTITLE7=Travesura
TTITLE8=Coplas de retache
TTITLE9=A jorge Negrete
TTITLE10=La feria de las Flores
TTITLE11=El balaju
TTITLE12=La burrita
TTITLE13=Hasta luego
TTITLE14=Besos
TTITLE15=Por fin cuando
EXTD=
EXTT0=
EXTT1=
EXTT2=
EXTT3=
EXTT4=
EXTT5=
EXTT6=
EXTT7=
EXTT8=
EXTT9=
EXTT10=
EXTT11=
EXTT12=
EXTT13=
EXTT14=
EXTT15=
PLAYORDER=
